<svg version="1.0" xmlns="http://www.w3.org/2000/svg"
 width="740.000000pt" height="740.000000pt" viewBox="0 0 740.000000 740.000000"
 preserveAspectRatio="xMidYMid meet">

<g transform="translate(0.000000,740.000000) scale(0.100000,-0.100000)"
fill="#000000" stroke="none">
<path d="M3499 6920 c-1010 -64 -1932 -598 -2490 -1440 -502 -758 -659 -1691
-434 -2575 144 -569 423 -1061 835 -1476 154 -154 255 -241 420 -359 435 -311
949 -509 1500 -576 163 -20 545 -23 700 -5 640 73 1203 305 1695 698 256 204
547 533 715 808 542 886 635 1938 259 2895 -391 991 -1257 1728 -2304 1960
-173 38 -316 58 -510 70 -174 11 -211 11 -386 0z m456 -110 c732 -63 1397
-367 1919 -878 424 -414 712 -915 851 -1474 236 -953 25 -1926 -586 -2699 -96
-123 -368 -396 -489 -493 -203 -162 -513 -346 -750 -444 -275 -115 -526 -180
-860 -224 -146 -19 -566 -16 -725 6 -242 33 -489 93 -702 171 -260 96 -635
309 -863 491 -121 96 -392 370 -490 494 -277 349 -478 756 -585 1180 -215 858
-60 1752 430 2485 135 202 207 288 404 485 411 409 877 675 1431 815 326 83
686 113 1015 85z"/>
<path d="M3593 5382 c-131 -47 -216 -154 -230 -288 -5 -44 -2 -58 12 -74 37
-40 105 -14 105 41 0 111 108 219 220 219 124 0 235 -130 216 -251 -10 -63
-28 -89 -114 -167 -88 -79 -122 -128 -146 -214 -14 -46 -22 -57 -43 -63 -14
-3 -406 -250 -872 -549 -465 -298 -876 -562 -913 -585 -101 -64 -147 -135
-148 -232 0 -96 53 -187 137 -229 48 -25 51 -25 356 -28 l307 -3 0 -386 c0
-276 3 -397 12 -427 16 -53 81 -118 134 -134 57 -17 2094 -18 2145 -1 56 19
100 59 125 113 24 51 24 51 24 444 l0 392 293 0 c339 0 363 4 433 77 98 100
98 264 0 355 -34 32 -255 176 -778 509 -40 26 -156 101 -258 166 -604 389
-797 511 -817 517 -29 9 -29 20 3 84 18 37 47 69 97 110 57 46 79 72 107 126
32 63 35 76 35 155 0 72 -4 95 -26 142 -55 117 -163 189 -293 196 -51 3 -85
-2 -123 -15z m305 -1005 c81 -52 386 -247 677 -434 292 -187 631 -404 755
-484 247 -159 275 -185 267 -252 -6 -48 -29 -82 -70 -107 -30 -19 -52 -20
-319 -20 l-288 0 0 113 c0 97 -3 119 -24 163 -25 54 -69 94 -125 113 -25 8
-323 11 -1075 11 -1025 0 -1042 -1 -1086 -21 -60 -27 -79 -45 -106 -104 -21
-43 -24 -65 -24 -162 l0 -113 -282 0 c-250 0 -287 2 -317 18 -74 37 -101 120
-59 181 24 36 32 41 663 446 187 120 439 282 560 360 442 285 586 376 608 385
49 21 94 4 245 -93z m868 -1051 l34 -34 0 -266 0 -266 -1100 0 -1100 0 0 266
0 266 34 34 34 34 1032 0 1032 0 34 -34z m34 -786 l0 -100 -1100 0 -1100 0 0
100 0 100 1100 0 1100 0 0 -100z m0 -286 c0 -62 -2 -68 -34 -100 l-34 -34
-1032 0 -1032 0 -34 34 c-32 32 -34 38 -34 100 l0 66 1100 0 1100 0 0 -66z"/>
</g>
</svg>
